<svg width="29" height="33" viewBox="0 0 29 33" fill="none" xmlns="http://www.w3.org/2000/svg">
<path d="M0.747541 13.6429L2.27123 12.8717C2.27123 11.8435 2.01728 10.5583 2.52518 9.53012C3.03307 8.50193 4.30281 7.98784 5.06465 7.47375L10.3976 4.38918C11.6673 3.61804 13.4449 2.07576 14.9686 2.33281C16.2384 2.58986 17.2541 3.61804 18.5239 4.13214L25.6344 8.50193C26.3963 9.01603 26.9042 9.78717 26.9042 11.0724V12.8717L28.4279 13.6429C28.4279 12.1006 28.6818 10.0442 27.92 8.75898C27.1581 7.47375 25.8884 6.70261 24.6186 5.93146L18.5239 2.33281C17.2541 1.56167 15.9844 0.790527 14.4607 0.790527C12.937 0.790527 11.9212 1.81871 10.6515 2.33281C8.61795 3.61485 6.58637 4.90009 4.55676 6.18851C3.28702 6.70261 2.01728 7.47375 1.25544 8.75898C0.493593 10.3013 0.747541 12.1006 0.747541 13.6429ZM14.2068 5.67442C11.1594 6.18851 11.9212 11.0724 14.9686 10.8154C18.2699 10.3013 17.2541 5.16032 14.2068 5.67442ZM13.9528 18.0127C12.6831 16.9845 11.4133 16.2133 9.88966 16.2133H5.8265L5.06465 15.1852C4.55676 14.6711 4.04886 14.414 3.28702 14.414C1.50938 14.414 0.239645 16.4704 1.00149 18.0127C1.76333 19.5549 3.54097 19.812 4.81071 18.7838C5.06465 18.5268 5.3186 17.7556 5.8265 17.7556H7.85808C10.1436 17.7556 12.4291 18.0127 13.4449 20.3261C13.9528 21.6113 13.9528 22.8966 13.9528 24.4388C13.9528 25.467 14.2068 27.0093 13.6989 28.0375C12.937 30.3509 10.6515 28.8086 9.38177 28.0375L4.81071 25.467C4.04886 24.9529 3.03307 24.4388 2.52518 23.6677L2.27123 20.8402L0.747541 20.3261C0.747541 21.6113 0.747541 22.8966 1.25544 24.1818C1.76333 25.467 3.03307 25.9811 4.04886 26.7523L8.87387 29.5798C10.6515 30.608 12.6831 32.4073 14.7147 32.4073C16.2384 32.4073 17.5081 31.3791 18.5239 30.608L24.8726 27.0093C25.8884 26.2382 27.1581 25.7241 27.92 24.6959C28.6818 23.1536 28.4279 21.6113 28.4279 20.3261L26.9042 20.8402C26.9042 21.8684 27.1581 22.8966 26.6502 23.6677C26.1423 24.4388 25.3805 24.9529 24.6186 25.21L20.3015 27.7804C19.2857 28.5516 17.5081 29.8368 16.2384 29.0657C15.2226 28.2945 15.4765 26.7523 15.4765 25.7241C15.4765 23.1536 14.9686 20.3261 17.2541 18.5268C19.0318 17.2415 21.5713 17.7556 23.8568 17.7556C24.1107 19.0409 25.8884 19.812 26.9042 19.2979C28.1739 18.7838 28.6818 17.4986 28.4279 16.4704C28.3375 16.0101 28.1244 15.5836 27.8116 15.2372C27.4989 14.8908 27.0984 14.6376 26.6536 14.5052C26.2088 14.3728 25.7367 14.3661 25.2884 14.486C24.8402 14.6059 24.4329 14.8477 24.1107 15.1852L23.3489 16.2133H19.2857C17.762 16.2133 16.4923 16.9845 15.4765 18.0127C15.4765 16.4704 15.2226 13.1288 17.762 13.3858C18.2699 13.3858 18.5239 14.414 19.0318 14.6711C20.3015 15.4422 22.0792 14.9281 22.5871 13.3858C23.0949 11.5865 21.8252 10.0442 20.0476 10.0442C19.5397 10.0442 18.7778 10.5583 18.5239 11.0724L18.016 11.8435H16.7463C15.9844 12.1006 15.2226 12.6147 14.7147 13.3858H14.4607C14.2068 12.6147 13.191 12.1006 12.4291 11.8435H11.4133L10.9055 10.8154C10.3976 10.3013 9.63571 10.0442 9.12782 10.0442C7.35018 10.0442 6.08044 11.5865 6.58834 13.3858C7.09624 14.9281 8.87387 15.6992 10.3976 14.6711L11.4133 13.3858L12.4291 13.6429C14.2068 14.6711 13.9528 16.4704 13.9528 18.0127Z" fill="#4BC78A"/>
</svg>
