<svg width="115" height="20" viewBox="0 0 115 20" fill="none" xmlns="http://www.w3.org/2000/svg">
<path d="M0.0299072 19.7005L2.5848 19.3664L3.86224 16.694L4.50097 15.6918H16.6367L15.6786 13.6875C15.0399 13.0194 13.4431 13.3534 12.8044 13.3534H5.13969L7.69458 8.67665C8.3333 7.00637 8.97202 4.66798 9.93011 3.33175C12.1656 1.32742 13.7624 5.00203 14.4012 6.33826L18.8722 15.6918L20.1497 18.3643L20.7884 19.3664L23.3433 19.7005C22.3852 16.694 20.469 13.6875 19.1916 11.015C17.9141 8.00854 16.6367 5.00203 15.0399 2.66364C14.0818 0.993361 12.485 0.32525 10.8882 0.659306C8.65266 0.993362 7.69458 2.9977 6.73649 5.00203L2.5848 14.3556L0.0299072 19.7005ZM43.463 19.7005L45.6986 19.3664L46.976 16.694L47.6147 15.6918H60.0698L59.1117 13.6875C58.473 13.0194 56.8762 13.3534 56.2375 13.3534H48.5728L51.1277 8.34259C51.7664 6.67231 52.4052 4.33392 53.6826 3.33175C55.9181 1.32742 57.1956 5.33609 57.8343 6.67231L62.3054 15.6918C62.6247 16.694 63.2634 18.6983 64.2215 19.3664L66.4571 19.7005C66.1377 17.6962 64.8602 16.3599 64.2215 14.6897L59.7505 5.00203C58.7924 3.33175 58.1537 1.32742 55.9181 0.659306C54.6407 0.32525 52.7245 0.659306 51.7664 1.99553L49.5309 6.0042L46.3373 13.0194C45.3792 15.0237 43.7824 17.3621 43.463 19.7005ZM92.006 19.7005L94.5608 19.3664L95.8383 16.694C95.8383 16.3599 95.8383 15.6918 96.477 15.6918H108.613L107.655 13.6875C106.697 13.0194 105.419 13.3534 104.461 13.3534H97.1157L99.3513 8.67665C100.309 7.00637 100.629 4.66798 101.906 3.33175C104.142 1.32742 105.738 5.00203 106.377 6.33826L110.848 16.0259C111.487 16.694 111.806 18.6983 112.764 19.3664L115 19.7005C114.681 17.3621 113.084 15.0237 112.126 13.0194L108.932 6.33826L107.016 2.32959C105.738 0.993361 104.142 0.32525 102.545 0.659306C100.309 0.993362 99.3513 3.33175 98.7125 5.00203L94.2415 14.3556C93.6028 16.0259 92.3253 17.6962 92.006 19.7005ZM41.5469 19.7005V17.3621H31.0079C25.2594 16.3599 23.0239 8.00854 28.4531 4.33392C31.0079 2.66364 35.479 3.33175 38.6726 3.33175H41.2275V0.993362H36.4371C33.2435 0.993362 30.0499 0.659306 27.1756 2.32959C25.9524 3.13546 24.9342 4.23954 24.2083 5.5472C23.4824 6.85486 23.0703 8.32713 23.0076 9.83784C22.9448 11.3485 23.2331 12.8527 23.8477 14.2213C24.4624 15.5899 25.3852 16.7823 26.5369 17.6962C28.7724 19.3664 31.6467 19.7005 34.5209 19.7005H41.5469ZM84.6606 19.7005V17.3621H74.4411C68.6926 16.3599 66.4571 8.00854 71.5668 4.33392C74.4411 2.32959 78.9121 3.33175 82.1058 3.33175H84.3413C84.98 3.33175 84.98 1.32742 84.6606 0.993362H79.5509C76.6766 0.993362 73.1636 0.659306 70.2894 2.32959C69.0853 3.16345 68.0922 4.28995 67.395 5.61275C66.6977 6.93555 66.3172 8.4153 66.2858 9.92546C66.2544 11.4356 66.5731 12.9313 67.2147 14.2845C67.8563 15.6378 68.8017 16.8083 69.97 17.6962C72.2056 19.3664 75.0798 19.7005 77.6347 19.7005H84.6606ZM87.5349 0.993362V19.7005H89.7704V0.993362H87.5349Z" fill="#1C1E1F"/>
</svg>
